# xmcd
#
# Track frame offsets:
#	150
#	32118
#	76991
#	110338
#	159889
#	181489
#
# Disc length: 2609 seconds
#
# Revision: 1
# Processed by: cddbd v1.5.2PL0 Copyright (c) Steve Scherf et al.
# Submitted via: audiograbber 1.83.01
#
DISCID=3d0a2f06
DTITLE=Grateful Dead - 82-07-31 Manor Downs, Austin TX
DYEAR=1900
DGENRE=
TTITLE0=Space
TTITLE1=Uncle John's Band
TTITLE2=Truckin'
TTITLE3=Morning Dew
TTITLE4=One More Saturday Night
TTITLE5=Don't Ease Me In
EXTD=
EXTT0=
EXTT1=
EXTT2=
EXTT3=
EXTT4=
EXTT5=
PLAYORDER=
